<svg version="1.1" viewBox="0.0 0.0 600.0 600.0" fill="none" stroke="none" stroke-linecap="square" stroke-miterlimit="10" xmlns:xlink="http://www.w3.org/1999/xlink" xmlns="http://www.w3.org/2000/svg"><clipPath id="p.0"><path d="m0 0l600.0 0l0 600.0l-600.0 0l0 -600.0z" clip-rule="nonzero"/></clipPath><g clip-path="url(#p.0)"><path fill="#000000" fill-opacity="0.0" d="m0 0l600.0 0l0 600.0l-600.0 0z" fill-rule="evenodd"/><path fill="#ffffff" d="m180.58398 228.92245l264.93726 0l0 179.64252c-132.46149 0 -132.46149 69.11734 -264.93726 34.558685zm21.82759 0l0 -23.28955l263.1278 0l0 180.76944c-10.001923 0 -20.018127 1.2521362 -20.018127 1.2521362l0 -158.73203zm20.516785 -23.28955l0 -22.726074l265.40747 0l0 180.20596c-11.398224 0 -22.796448 0.9390869 -22.796448 0.9390869l0 -158.41898z" fill-rule="evenodd"/><path fill="#000000" fill-opacity="0.0" d="m180.58398 228.92245l264.93726 0l0 179.64252c-132.46149 0 -132.46149 69.11734 -264.93726 34.558685zm21.82759 0l0 -23.28955l263.1278 0l0 180.76944c-10.001923 0 -20.018127 1.2521362 -20.018127 1.2521362m-222.59288 -182.02158l0 -22.726074l265.40747 0l0 180.20596c-11.398224 0 -22.796448 0.9390869 -22.796448 0.9390869" fill-rule="evenodd"/><path fill="#000000" fill-opacity="0.0" d="m180.58398 443.12366c132.47577 34.558655 132.47577 -34.558685 264.93726 -34.558685l0 -20.910492c0 0 10.016205 -1.2521362 20.018127 -1.2521362l0 -22.350464c0 0 11.398224 -0.9390869 22.796448 -0.9390869l0 -180.20596l-265.40747 0l0 22.726074l-20.516785 0l0 23.28955l-21.82759 0z" fill-rule="evenodd"/><path stroke="#000000" stroke-width="16.0" stroke-linejoin="round" stroke-linecap="butt" d="m180.58398 228.92245l264.93726 0l0 179.64252c-132.46149 0 -132.46149 69.11734 -264.93726 34.558685zm21.82759 0l0 -23.28955l263.1278 0l0 180.76944c-10.001923 0 -20.018127 1.2521362 -20.018127 1.2521362m-222.59288 -182.02158l0 -22.726074l265.40747 0l0 180.20596c-11.398224 0 -22.796448 0.9390869 -22.796448 0.9390869" fill-rule="evenodd"/><path fill="#ffffff" d="m129.06955 281.8622l0 0c0 -74.684555 60.543793 -135.22835 135.22836 -135.22835c74.68454 0 135.22833 60.543793 135.22833 135.22835c0 74.68454 -60.543793 135.22833 -135.22833 135.22833c-74.68457 0 -135.22836 -60.543793 -135.22836 -135.22833z" fill-rule="evenodd"/><path fill="#cbcbcb" d="m206.88846 241.41891c0 -7.779648 6.3066406 -14.086288 14.086288 -14.086288c7.7796326 0 14.086288 6.3066406 14.086288 14.086288c0 7.7796326 -6.306656 14.086288 -14.086288 14.086288c-7.779648 0 -14.086288 -6.306656 -14.086288 -14.086288m86.6463 0c0 -7.779648 6.3066406 -14.086288 14.086304 -14.086288c7.7796326 0 14.086273 6.3066406 14.086273 14.086288c0 7.7796326 -6.3066406 14.086288 -14.086273 14.086288c-7.779663 0 -14.086304 -6.306656 -14.086304 -14.086288" fill-rule="evenodd"/><path fill="#000000" fill-opacity="0.0" d="m191.00325 340.83618q73.29466 50.337402 146.41814 0" fill-rule="evenodd"/><path fill="#000000" fill-opacity="0.0" d="m129.06955 281.8622l0 0c0 -74.684555 60.543793 -135.22835 135.22836 -135.22835c74.68454 0 135.22833 60.543793 135.22833 135.22835c0 74.68454 -60.543793 135.22833 -135.22833 135.22833c-74.68457 0 -135.22836 -60.543793 -135.22836 -135.22833z" fill-rule="evenodd"/><path stroke="#000000" stroke-width="16.0" stroke-linejoin="round" stroke-linecap="butt" d="m206.88846 241.41891c0 -7.779648 6.3066406 -14.086288 14.086288 -14.086288c7.7796326 0 14.086288 6.3066406 14.086288 14.086288c0 7.7796326 -6.306656 14.086288 -14.086288 14.086288c-7.779648 0 -14.086288 -6.306656 -14.086288 -14.086288m86.6463 0c0 -7.779648 6.3066406 -14.086288 14.086304 -14.086288c7.7796326 0 14.086273 6.3066406 14.086273 14.086288c0 7.7796326 -6.3066406 14.086288 -14.086273 14.086288c-7.779663 0 -14.086304 -6.306656 -14.086304 -14.086288" fill-rule="evenodd"/><path stroke="#000000" stroke-width="16.0" stroke-linejoin="round" stroke-linecap="butt" d="m191.00325 340.83618q73.29466 50.337402 146.41814 0" fill-rule="evenodd"/><path stroke="#000000" stroke-width="16.0" stroke-linejoin="round" stroke-linecap="butt" d="m129.06955 281.8622l0 0c0 -74.684555 60.543793 -135.22835 135.22836 -135.22835c74.68454 0 135.22833 60.543793 135.22833 135.22835c0 74.68454 -60.543793 135.22833 -135.22833 135.22833c-74.68457 0 -135.22836 -60.543793 -135.22836 -135.22833z" fill-rule="evenodd"/><path fill="#ffffff" d="m111.66484 168.10577l0 0c0 9.447983 34.446167 17.107086 76.93767 17.107086c42.491486 0 76.93765 -7.6591034 76.93765 -17.107086l0 0c0 -9.447983 34.446167 -17.107086 76.93768 -17.107086c42.491486 0 76.93765 7.6591034 76.93765 17.107086l0 136.85669c0 -9.447968 -34.446167 -17.107086 -76.93765 -17.107086c-42.491516 0 -76.93768 7.6591187 -76.93768 17.107086c0 9.447998 -34.446167 17.107086 -76.93765 17.107086c-42.4915 0 -76.93767 -7.659088 -76.93767 -17.107086z" fill-rule="evenodd"/><path stroke="#000000" stroke-width="16.0" stroke-linejoin="round" stroke-linecap="butt" d="m111.66484 168.10577l0 0c0 9.447983 34.446167 17.107086 76.93767 17.107086c42.491486 0 76.93765 -7.6591034 76.93765 -17.107086l0 0c0 -9.447983 34.446167 -17.107086 76.93768 -17.107086c42.491486 0 76.93765 7.6591034 76.93765 17.107086l0 136.85669c0 -9.447968 -34.446167 -17.107086 -76.93765 -17.107086c-42.491516 0 -76.93768 7.6591187 -76.93768 17.107086c0 9.447998 -34.446167 17.107086 -76.93765 17.107086c-42.4915 0 -76.93767 -7.659088 -76.93767 -17.107086z" fill-rule="evenodd"/><path fill="#000000" fill-opacity="0.0" d="m124.059784 177.57138l75.33858 9.322845l-7.62204 61.637787l-75.338585 -9.32283z" fill-rule="evenodd"/><path fill="#000000" d="m149.65097 200.81264q1.5971985 0.1976471 2.960205 0.63397217q1.3630066 0.4363098 2.458725 0.996994q1.0957184 0.5606842 1.8755646 1.1295166q0.77983093 0.56881714 1.2610321 1.0062256l0.2128601 -1.7212524l7.892914 0.9767151l-1.6107483 13.025787l-8.373627 -1.0362091q0.19750977 -1.5972137 -0.073349 -2.7170715q-0.2534485 -1.1334534 -0.8222656 -1.8808441q-0.5688324 -0.74739075 -1.4181976 -1.1358948q-0.8474579 -0.40400696 -1.8863983 -0.5325775q-1.4111176 -0.17460632 -2.4861755 0.24339294q-1.0595398 0.41993713 -1.8429718 1.5352936q-0.78341675 1.1153564 -1.3545074 3.0599365q-0.55558777 1.9465027 -0.90649414 4.7842712q-0.3585968 2.8997803 -0.25904846 4.895874q0.10144043 1.9805756 0.64967346 3.2764587q0.56565857 1.2823029 1.5995178 1.9612885q1.0338745 0.67897034 2.5690308 0.86894226q1.0234528 0.12664795 2.0173035 -0.14396667q1.011261 -0.2842102 1.839798 -1.0003815q0.83044434 -0.7316742 1.3986969 -1.8894043q0.5701752 -1.173233 0.78302 -2.8945007l8.327103 1.0304565q-0.37583923 3.0393372 -1.6709137 5.618576q-1.2950592 2.5792236 -3.577652 4.359253q-2.2825775 1.7800293 -5.5625916 2.586441q-3.280014 0.80641174 -7.575363 0.27487183q-3.8766937 -0.47972107 -7.2062073 -1.9465942q-3.3121033 -1.4804535 -5.6081696 -4.0475006q-2.2960663 -2.5670319 -3.3494263 -6.2713013q-1.0514526 -3.7197876 -0.43974304 -8.666489q0.61169434 -4.946701 2.5511475 -8.280624q1.9568481 -3.347519 4.731491 -5.287079q2.7901306 -1.9376373 6.1129913 -2.581314q3.3402863 -0.6572571 6.782776 -0.2312622z" fill-rule="nonzero"/></g></svg>